<svg width="26" height="30" viewBox="0 0 26 30" fill="none" xmlns="http://www.w3.org/2000/svg">
<path fill-rule="evenodd" clip-rule="evenodd" d="M9.66879 1.69636C7.88779 2.62733 6.43069 3.41512 6.431 3.44716C6.43179 3.52986 10.7055 5.70169 10.8571 5.6964C10.9261 5.69408 11.4267 5.46287 11.9694 5.18266L12.9563 4.67328L14.0342 5.22923L15.112 5.78529L16.8771 4.98941C19.5368 3.79013 19.813 3.65871 19.7697 3.61456C19.7122 3.55598 18.7583 3.04173 16.1701 1.67442C14.9193 1.01359 13.7052 0.365669 13.4722 0.234562C13.2391 0.103455 13.0167 -0.00201238 12.9778 2.91459e-05C12.9389 0.00207067 11.4498 0.765427 9.66879 1.69636ZM1.85735 5.75539L0.00334483 6.71636V10.9339C0.00334483 13.2535 0.0276897 15.1513 0.0575517 15.1513C0.0873104 15.1513 0.999483 14.7546 2.08455 14.2696L4.05741 13.3879V8.94235L5.02148 9.46941C5.76438 9.87518 6.50773 10.2801 7.25152 10.6843L8.51745 11.372L9.08076 11.1164C9.43405 10.9559 9.78662 10.7937 10.1385 10.6301C10.4104 10.503 11.0778 10.2013 11.6217 9.95958C12.1655 9.71771 12.6689 9.47449 12.7403 9.41906C12.8351 9.34543 11.6788 8.70425 8.46355 7.04744C6.03993 5.79854 3.97921 4.78069 3.88417 4.78557C3.78914 4.79045 2.87707 5.22681 1.85735 5.75539ZM20.1038 6.02526C18.8411 6.59726 17.8071 7.08813 17.806 7.11612C17.8049 7.14408 18.4931 7.5547 19.3354 8.02847C20.1777 8.50235 20.8669 8.91539 20.8669 8.9465C20.8669 8.97754 20.1215 9.33993 19.2107 9.75197C18.2997 10.1639 15.9971 11.2074 14.0937 12.0708L7.71593 14.9636C6.11162 15.6913 4.66552 16.3473 4.50238 16.4215C1.22548 17.91 0.324793 18.323 0.201103 18.3939C0.0767241 18.4653 0.0485517 18.88 0.0264138 20.9615L0 23.4439L1.65793 24.2916L3.31583 25.1393L5.61476 24.0982C6.87921 23.5256 7.91369 23.0271 7.91369 22.9904C7.91369 22.9538 7.68004 22.801 7.39459 22.6508C7.109 22.5006 6.51948 22.168 6.08441 21.9116C5.64938 21.6551 5.21559 21.4199 5.12035 21.3886C5.02514 21.3575 4.94862 21.3031 4.95017 21.2676C4.95176 21.2322 5.9641 20.7497 7.19969 20.1953C9.59959 19.1185 11.4362 18.2887 15.3791 16.4994C17.1422 15.6995 18.9055 14.9001 20.6691 14.1012C22.219 13.3992 24.0211 12.5793 24.6737 12.2792L25.8603 11.7336L25.8867 9.22287L25.9132 6.71221L24.2316 5.84612C23.3067 5.36982 22.5162 4.98128 22.4747 4.98269C22.4333 4.98401 21.3664 5.45311 20.1038 6.02526ZM25.4098 15.0831C25.162 15.2046 24.6725 15.432 24.3221 15.5884C23.9717 15.7448 23.3067 16.0459 22.8445 16.2576L22.004 16.6422L21.9848 18.8465C21.9742 20.0588 21.9297 21.0453 21.8859 21.0389C21.7865 21.024 20.2112 20.2134 18.6278 19.3619C17.4849 18.7475 17.4131 18.7231 17.1446 18.8565C16.9893 18.9337 16.0613 19.3513 15.0825 19.7847C14.1035 20.2181 13.2707 20.6009 13.2315 20.6356C13.1925 20.6702 15.1626 21.7417 17.6098 23.0168L22.0591 25.3353L23.9597 24.3487C25.005 23.8061 25.8938 23.3112 25.9347 23.249C26.0269 23.109 26.019 14.8431 25.9267 14.8543C25.8902 14.8586 25.6576 14.9617 25.4098 15.0831ZM14.8847 24.7852C14.555 24.9275 14.2254 25.0699 13.8959 25.2125C12.9009 25.6445 13.0959 25.6588 11.9121 25.0675C11.1236 24.6736 10.7838 24.5521 10.6362 24.6111C10.5256 24.6553 9.57328 25.0853 8.51983 25.5665C7.46645 26.0477 6.56804 26.4414 6.52335 26.4414C6.08138 26.4414 6.81614 26.8819 9.65142 28.3171L12.9765 30L14.3756 29.3069C15.145 28.9257 16.697 28.1624 17.8246 27.6106C18.952 27.0587 19.8605 26.5928 19.8435 26.5753C19.8263 26.5578 18.8817 26.071 17.7441 25.4935L15.6757 24.4438L14.8847 24.7852Z" fill="black"/>
</svg>
