<svg width="36" height="30" viewBox="0 0 36 30" fill="none" xmlns="http://www.w3.org/2000/svg">
<path d="M8.85105 17.4866L0.72085 14.8105C0.72085 14.8105 -0.250799 14.4122 0.062072 13.5092C0.126478 13.323 0.256401 13.1645 0.64506 12.8922C2.4465 11.6237 33.9881 0.170731 33.9881 0.170731C33.9881 0.170731 34.8787 -0.13244 35.404 0.0692069C35.5339 0.109841 35.6508 0.184616 35.7428 0.28588C35.8347 0.387143 35.8984 0.511262 35.9273 0.645542C35.984 0.882714 36.0078 1.12672 35.9978 1.37052C35.9953 1.58142 35.97 1.7769 35.9509 2.08343C35.7588 5.21472 30.0099 28.5845 30.0099 28.5845C30.0099 28.5845 29.666 29.952 28.4336 29.9988C28.1308 30.0087 27.8291 29.9569 27.5465 29.8464C27.2639 29.736 27.0062 29.5692 26.7888 29.356C24.3705 27.2546 16.0121 21.5798 14.1651 20.3318C14.1235 20.3031 14.0884 20.2658 14.0622 20.2222C14.0361 20.1787 14.0195 20.13 14.0136 20.0794C13.9877 19.9479 14.1293 19.7849 14.1293 19.7849C14.1293 19.7849 28.6835 6.71571 29.0708 5.34373C29.1007 5.23743 28.9875 5.18499 28.8354 5.23154C27.8687 5.59081 11.1114 16.2815 9.26192 17.4613C9.12879 17.502 8.98808 17.5107 8.85105 17.4866Z" fill="black"/>
</svg>
