<svg width="32" height="38" viewBox="0 0 32 38" fill="none" xmlns="http://www.w3.org/2000/svg">
<path d="M12.5563 8.6485C12.1587 8.58492 12.1419 8.57741 12.329 8.54779C12.6876 8.49087 13.5343 8.56842 14.1179 8.71146C15.48 9.04539 16.7196 9.9008 18.0427 11.4199L18.3942 11.8236L18.897 11.7402C21.0154 11.3891 23.1705 11.6681 24.973 12.5268C25.4688 12.763 26.2507 13.2333 26.3483 13.3542C26.3795 13.3927 26.4367 13.6406 26.4753 13.9051C26.6092 14.8203 26.5422 15.5219 26.2708 16.0458C26.1231 16.331 26.1148 16.4213 26.2141 16.6653C26.2934 16.8601 26.5144 17.0042 26.7333 17.0039C27.1812 17.0033 27.6633 16.2565 27.8867 15.2175L27.9755 14.8048L28.1512 15.0101C29.1155 16.1367 29.8728 17.6731 30.0029 18.7667L30.0368 19.0518L29.8747 18.7926C29.5958 18.3466 29.3155 18.0429 28.9566 17.798C28.3097 17.3566 27.6256 17.2064 25.8141 17.1079C24.1779 17.019 23.2519 16.8749 22.3337 16.5661C20.7715 16.0408 19.9839 15.3413 18.1282 12.8305C17.304 11.7153 16.7945 11.0983 16.2877 10.6014C15.1362 9.47232 14.0047 8.88018 12.5563 8.6485Z" fill="black"/>
<path d="M26.7174 11.1384C26.7586 10.3912 26.8569 9.89821 27.0544 9.44812C27.1326 9.26993 27.2059 9.12408 27.2172 9.12408C27.2285 9.12408 27.1946 9.25561 27.1417 9.41633C26.998 9.85323 26.9745 10.4507 27.0734 11.1459C27.199 12.028 27.2704 12.1553 28.1745 13.1081C28.5985 13.5551 29.0917 14.1187 29.2705 14.3607L29.5956 14.8008L29.2705 14.4863C28.8729 14.1017 27.9586 13.3518 27.7566 13.2445C27.6212 13.1726 27.6011 13.1738 27.5175 13.2596C27.4405 13.3386 27.4243 13.4573 27.4136 14.0186C27.397 14.8933 27.2814 15.4547 27.0024 16.0161C26.8515 16.3198 26.8277 16.255 26.9643 15.9123C27.0662 15.6564 27.0766 15.5439 27.0758 14.697C27.0742 12.9957 26.8784 12.5867 25.7297 11.886C25.4387 11.7085 24.9592 11.4524 24.6643 11.3171C24.3692 11.1817 24.1349 11.0637 24.1434 11.0549C24.1759 11.0215 25.2962 11.3587 25.7471 11.5375C26.4177 11.8036 26.5284 11.838 26.6099 11.806C26.6645 11.7845 26.6909 11.6205 26.7174 11.1384Z" fill="black"/>
<path d="M13.3286 14.0491C12.5213 12.903 12.0219 11.1458 12.13 9.83229L12.1635 9.42578L12.3472 9.46038C12.6923 9.5253 13.2872 9.75368 13.5658 9.92816C14.3303 10.407 14.6613 11.0373 14.998 12.6561C15.0966 13.1302 15.226 13.6668 15.2855 13.8485C15.3814 14.1409 15.7436 14.8238 16.0381 15.2674C16.2503 15.5868 16.1094 15.7382 15.6405 15.6945C14.9244 15.6279 13.9543 14.9375 13.3286 14.0491Z" fill="black"/>
<path d="M25.7381 22.5787C21.9657 21.0123 20.6371 19.6527 20.6371 17.3587C20.6371 17.0211 20.6484 16.7448 20.6621 16.7448C20.6758 16.7448 20.8218 16.8563 20.9864 16.9924C21.7514 17.6251 22.608 17.8954 24.9795 18.2522C26.3749 18.4622 27.1603 18.6317 27.8847 18.8795C30.1872 19.6669 31.6118 21.265 31.9514 23.4417C32.0502 24.0742 31.9923 25.2602 31.8322 25.8854C31.7059 26.3791 31.3203 27.269 31.2181 27.3032C31.1897 27.3126 31.1619 27.2006 31.1546 27.0481C31.1158 26.2308 30.7153 25.4351 30.0427 24.839C29.2779 24.1613 28.2504 23.6217 25.7381 22.5787Z" fill="black"/>
<path d="M23.0899 23.2293C23.0426 22.9393 22.9607 22.5689 22.9077 22.4062L22.8115 22.1105L22.9903 22.3174C23.2377 22.6038 23.4332 22.9703 23.5989 23.4583C23.7254 23.8309 23.7396 23.9416 23.7386 24.547C23.7377 25.1413 23.7219 25.2659 23.6051 25.6012C23.4209 26.13 23.1924 26.5049 22.8089 26.9073C22.1198 27.6306 21.2338 28.031 19.9554 28.1971C19.7331 28.2259 19.0854 28.2746 18.516 28.3051C17.0808 28.382 16.1363 28.5411 15.2877 28.8484C15.1656 28.8926 15.0567 28.9194 15.0457 28.9081C15.0113 28.8728 15.5892 28.5175 16.0664 28.2805C16.7394 27.9462 17.4093 27.7638 18.9103 27.506C19.6518 27.3786 20.4175 27.2241 20.6119 27.1626C22.4481 26.5821 23.392 25.0839 23.0899 23.2293Z" fill="black"/>
<path d="M24.8192 26.3965C24.3181 25.2854 24.203 24.2126 24.4775 23.2121C24.5069 23.1052 24.5542 23.0177 24.5826 23.0177C24.611 23.0177 24.7293 23.0836 24.8454 23.1642C25.0764 23.3246 25.5396 23.5946 26.7737 24.2885C28.3137 25.1543 29.1917 25.8248 29.7889 26.5908C30.3117 27.2617 30.6354 28.0257 30.7911 28.9574C30.8793 29.4852 30.8276 30.755 30.6963 31.2865C30.2823 32.9621 29.3199 34.2783 27.9474 35.0463C27.7463 35.1588 27.5658 35.2512 27.5462 35.2516C27.5267 35.252 27.5999 35.0599 27.709 34.8246C28.1708 33.8293 28.2233 32.8611 27.8743 31.7834C27.6605 31.1236 27.2247 30.3184 26.3448 28.9576C25.3218 27.3755 25.0709 26.9544 24.8192 26.3965Z" fill="black"/>
<path d="M10.6496 32.3917C12.0495 31.1727 13.7913 30.3068 15.378 30.041C16.0618 29.9264 17.2009 29.9719 17.8341 30.139C18.8491 30.4069 19.757 31.0068 20.2291 31.7216C20.6906 32.4202 20.8886 33.029 21.0948 34.3836C21.176 34.9179 21.2645 35.4544 21.2912 35.5759C21.446 36.2779 21.7473 36.839 22.1205 37.1208C22.7134 37.5683 23.7344 37.5962 24.7386 37.1922C24.9091 37.1236 25.0571 37.0762 25.0675 37.0869C25.1039 37.1242 24.5982 37.4733 24.2414 37.6571C23.7614 37.9043 23.3797 38 22.8724 38C21.9526 38 21.189 37.5174 20.5517 36.5335C20.4264 36.3399 20.1445 35.7599 19.9254 35.2447C19.2526 33.6622 18.9204 33.1801 18.1392 32.6525C17.4594 32.1935 16.5827 32.1113 15.9231 32.4448C15.0568 32.8828 14.815 34.0246 15.4356 34.7482C15.6822 35.0357 16.1421 35.2837 16.5182 35.3319C17.2217 35.4222 17.8263 34.8703 17.8263 34.1378C17.8263 33.6621 17.649 33.3907 17.2028 33.1831C16.5932 32.8994 15.9381 33.2309 15.9412 33.8215C15.9426 34.0732 16.0489 34.2313 16.2936 34.3455C16.4507 34.4188 16.4543 34.4246 16.3262 34.3972C15.767 34.2776 15.636 33.5823 16.0857 33.1207C16.6255 32.5666 17.7418 32.8112 18.1252 33.5675C18.2862 33.8852 18.3049 34.5179 18.1645 34.9C17.8503 35.7551 16.934 36.2048 16.0045 35.96C15.3717 35.7934 15.114 35.613 14.351 34.8026C13.0252 33.3942 12.5105 33.1212 10.5991 32.8135L10.2328 32.7546L10.6496 32.3917Z" fill="black"/>
<path fill-rule="evenodd" clip-rule="evenodd" d="M0.652071 0.842425C5.07974 6.3842 11.9058 15.0124 12.2448 15.4955C12.5246 15.8943 12.4193 16.2529 11.9399 16.5339C11.6734 16.6902 11.1253 16.8486 10.8509 16.8486C10.5405 16.8486 10.1909 16.6944 9.93632 16.4454C9.75631 16.2693 9.03 15.1509 7.35327 12.4679C6.07032 10.415 4.99664 8.712 4.96738 8.68351C4.89966 8.61753 4.90082 8.61978 7.22246 12.9036C8.68026 15.5935 9.17238 16.5445 9.17238 16.6717C9.17238 16.9304 9.10398 17.0663 8.79452 17.4223C8.27865 18.0158 8.04807 18.6826 7.8816 20.0627C7.69492 21.6098 7.1702 22.7026 5.71594 24.5729C4.86468 25.6678 4.72537 25.8685 4.51058 26.3098C4.23998 26.8654 4.16559 27.1767 4.13544 27.8784C4.10359 28.6203 4.16566 29.0996 4.38549 29.8089C4.57789 30.43 4.77872 30.84 5.29222 31.6602C5.73534 32.368 5.99056 32.894 5.99056 33.0997C5.99056 33.2635 6.02084 33.2637 6.70754 33.1038C8.35079 32.7211 9.68519 32.048 10.4357 31.2232C10.9001 30.7127 11.0091 30.4308 11.0127 29.7312C11.015 29.2736 10.9994 29.1778 10.8795 28.9145C10.6842 28.486 10.3287 28.1298 9.54527 27.5775C8.51876 26.8538 8.08033 26.2712 7.95919 25.47C7.85982 24.8126 7.97511 24.3488 8.54298 23.1214C9.1308 21.8509 9.27644 21.3095 9.37499 20.0289C9.43862 19.2015 9.52675 18.8753 9.75727 18.6134C9.99764 18.3403 10.2141 18.2478 10.809 18.1639C11.779 18.0273 12.3966 17.7685 12.9043 17.2861C13.3447 16.8676 13.529 16.4643 13.5573 15.8572L13.5788 15.3971L13.3327 15.1012C12.4414 14.0295 0.0551933 0 0.000338978 0C-0.0113737 0 0.281913 0.379118 0.652071 0.842425ZM6.49085 28.7179C6.69236 28.3499 6.58531 27.8767 6.24822 27.6456C5.92971 27.4272 5.43493 27.5301 5.43493 27.8147C5.43493 27.9015 5.48155 27.9647 5.5865 28.0204C5.76318 28.1142 5.77604 28.2196 5.637 28.4352C5.49619 28.6534 5.50755 28.8453 5.66905 28.9757C5.92937 29.1859 6.29784 29.0703 6.49085 28.7179Z" fill="black"/>
<path fill-rule="evenodd" clip-rule="evenodd" d="M14.1909 18.4053C13.7356 18.5495 13.293 19.0472 13.1559 19.5691C13.0723 19.8874 13.1198 20.4459 13.245 20.6183C13.4473 20.8969 13.6429 20.9703 14.1726 20.9664C15.2095 20.959 16.111 20.5003 16.2158 19.9269C16.3017 19.457 15.9058 18.8056 15.3604 18.5197C15.079 18.3722 14.4805 18.3136 14.1909 18.4053ZM15.4032 19.3828C15.5631 19.1485 15.4932 18.8952 15.2212 18.724C14.7033 18.3978 13.92 18.6677 13.92 19.1723C13.92 19.4235 14.3284 19.6975 14.7029 19.6975C14.952 19.6975 15.2931 19.5443 15.4032 19.3828Z" fill="black"/>
</svg>
